<?xml version="1.0" encoding="UTF-8" standalone="no"?>
<!-- Created with Inkscape (http://www.inkscape.org/) -->

<svg
   xmlns:dc="http://purl.org/dc/elements/1.1/"
   xmlns:cc="http://creativecommons.org/ns#"
   xmlns:rdf="http://www.w3.org/1999/02/22-rdf-syntax-ns#"
   xmlns:svg="http://www.w3.org/2000/svg"
   xmlns="http://www.w3.org/2000/svg"
   xmlns:sodipodi="http://sodipodi.sourceforge.net/DTD/sodipodi-0.dtd"
   xmlns:inkscape="http://www.inkscape.org/namespaces/inkscape"
   width="210mm"
   height="297mm"
   viewBox="0 0 744.09448819 1052.3622047"
   id="svg4331"
   version="1.1"
   inkscape:version="0.91 r13725"
   sodipodi:docname="Logo+Title.svg">
  <defs
     id="defs4333" />
  <sodipodi:namedview
     id="base"
     pagecolor="#ffffff"
     bordercolor="#666666"
     borderopacity="1.0"
     inkscape:pageopacity="0.0"
     inkscape:pageshadow="2"
     inkscape:zoom="0.49497475"
     inkscape:cx="-80.272706"
     inkscape:cy="793.7828"
     inkscape:document-units="px"
     inkscape:current-layer="layer1"
     showgrid="false"
     inkscape:window-width="1920"
     inkscape:window-height="1017"
     inkscape:window-x="-8"
     inkscape:window-y="-8"
     inkscape:window-maximized="1" />
  <metadata
     id="metadata4336">
    <rdf:RDF>
      <cc:Work
         rdf:about="">
        <dc:format>image/svg+xml</dc:format>
        <dc:type
           rdf:resource="http://purl.org/dc/dcmitype/StillImage" />
        <dc:title />
      </cc:Work>
    </rdf:RDF>
  </metadata>
  <g
     inkscape:label="Layer 1"
     inkscape:groupmode="layer"
     id="layer1">
    <path
       id="path3750"
       style="display:inline;fill:none;fill-opacity:1;fill-rule:evenodd;stroke:#ff6f00;stroke-width:14.56351662;stroke-linecap:round;stroke-linejoin:miter;stroke-miterlimit:4;stroke-dasharray:none;stroke-dashoffset:0;stroke-opacity:1"
       d="m 28.453462,550.53163 c 410.993208,70.94079 708.839818,-3.47369 685.213428,-0.72817 m 2.9372,-0.0789 c 0,0 -136.63168,-43.85183 -136.89694,-138.35341 C 578.59199,14.074781 371.449,25.437878 371.449,25.437878 l 0,0 M 26.8326,549.72452 c 0,0 136.63168,-43.85183 136.89694,-138.35341 C 164.8447,14.074781 371.98765,25.437878 371.98765,25.437878 l 0,0"
       inkscape:connector-curvature="0" />
    <path
       style="display:inline;fill:none;fill-rule:evenodd;stroke:#ffa000;stroke-width:18.18983269;stroke-linecap:round;stroke-linejoin:miter;stroke-miterlimit:4;stroke-dasharray:none;stroke-dashoffset:0;stroke-opacity:1"
       d="m 68.735893,632.20322 c 362.878147,70.94379 625.855587,-3.47354 604.994917,-0.728"
       id="path3750-0"
       inkscape:connector-curvature="0"
       sodipodi:nodetypes="cc" />
    <path
       style="color:#000000;font-style:normal;font-variant:normal;font-weight:normal;font-stretch:normal;font-size:medium;line-height:normal;font-family:sans-serif;text-indent:0;text-align:start;text-decoration:none;text-decoration-line:none;text-decoration-style:solid;text-decoration-color:#000000;letter-spacing:normal;word-spacing:normal;text-transform:none;direction:ltr;block-progression:tb;writing-mode:lr-tb;baseline-shift:baseline;text-anchor:start;white-space:normal;clip-rule:nonzero;display:inline;overflow:visible;visibility:visible;opacity:1;isolation:auto;mix-blend-mode:normal;color-interpolation:sRGB;color-interpolation-filters:linearRGB;solid-color:#000000;solid-opacity:1;fill:#ff6f00;fill-opacity:1;fill-rule:nonzero;stroke:#ff8f00;stroke-width:7.28175831;stroke-linecap:round;stroke-linejoin:miter;stroke-miterlimit:4;stroke-dasharray:none;stroke-dashoffset:0;stroke-opacity:1;color-rendering:auto;image-rendering:auto;shape-rendering:auto;text-rendering:auto;enable-background:accumulate"
       d="m 585.50049,400.30275 0,7.52637 c 37.94632,6.09466 68.68204,13.5792 89.55426,21.90216 11.15289,4.44732 19.62385,9.12492 25.08793,13.68743 5.45859,4.55795 7.7314,8.72789 7.76533,12.48708 -0.006,3.36729 -1.71669,6.92696 -5.7913,10.84869 -4.0814,3.92827 -10.44478,7.99289 -18.81309,11.88974 -16.7366,7.79375 -41.41075,14.98082 -71.987,21.00333 -61.15253,12.04502 -145.95172,19.53547 -239.59831,19.53559 -93.64764,2e-4 -178.4389,-7.49054 -239.59256,-19.53559 -30.57683,-6.02251 -55.261411,-13.20952 -71.998387,-21.00333 -8.368488,-3.89691 -14.725929,-7.96141 -18.807413,-11.88974 -4.077348,-3.92432 -5.787396,-7.48513 -5.791299,-10.85437 0.01748,-3.76237 2.272783,-7.93149 7.719829,-12.49276 5.449406,-4.56327 13.903673,-9.24314 25.048084,-13.69314 20.352223,-8.12676 50.135606,-15.45148 86.823606,-21.4698 l 0,-7.53775 c -37.72816,6.12005 -68.04634,13.66888 -89.520129,22.2435 -11.587899,4.62712 -20.64562,9.52727 -27.033528,14.8764 -6.387908,5.34915 -10.292299,11.42033 -10.31962,18.0451 l 0,0.0116 0,0.006 c 6.7e-4,5.86971 3.04258,11.32448 8.015643,16.11089 4.973091,4.78645 11.96422,9.13255 20.792828,13.24372 17.657245,8.22235 42.743864,15.45905 73.665236,21.54943 61.8427,12.18075 146.96251,19.67234 240.99771,19.67213 94.03415,-1.1e-4 179.15619,-7.49141 240.99775,-19.67213 30.92079,-6.09038 56.00269,-13.32716 73.65956,-21.54943 8.82843,-4.11114 15.81985,-8.45733 20.79283,-13.24372 4.97297,-4.78638 8.02068,-10.24127 8.02132,-16.11089 l 0,-0.0117 0,-0.0175 c -0.0518,-6.62191 -3.97613,-12.68368 -10.37651,-18.02806 -6.40046,-5.3444 -15.46648,-10.24121 -27.06198,-14.86501 -22.00114,-8.77315 -53.25983,-16.47448 -92.25079,-22.66447 z"
       id="path4575-3"
       inkscape:connector-curvature="0" />
    <flowRoot
       xml:space="preserve"
       id="flowRoot4900"
       style="font-style:normal;font-weight:normal;font-size:40px;line-height:125%;font-family:sans-serif;letter-spacing:0px;word-spacing:0px;fill:#000000;fill-opacity:1;stroke:none;stroke-width:1px;stroke-linecap:butt;stroke-linejoin:miter;stroke-opacity:1"
       transform="matrix(2.9127034,0,0,2.9127034,-683.22414,-531.70698)"><flowRegion
         id="flowRegion4902"><rect
           id="rect4904"
           width="379.81735"
           height="154.55334"
           x="172.73608"
           y="429.09808" /></flowRegion><flowPara
         id="flowPara4906"
         style="font-style:normal;font-variant:normal;font-weight:bold;font-stretch:normal;font-family:'Nexa Bold';-inkscape-font-specification:'Nexa Bold,  Bold';text-align:center;text-anchor:middle;opacity:0.32300002;fill:#ff6f00;fill-opacity:1">KLOKKEN</flowPara></flowRoot>  </g>
</svg>
