<?xml version="1.0" encoding="UTF-8" standalone="no"?>
<!-- Created with Inkscape (http://www.inkscape.org/) -->

<svg
   xmlns:osb="http://www.openswatchbook.org/uri/2009/osb"
   xmlns:dc="http://purl.org/dc/elements/1.1/"
   xmlns:cc="http://creativecommons.org/ns#"
   xmlns:rdf="http://www.w3.org/1999/02/22-rdf-syntax-ns#"
   xmlns:svg="http://www.w3.org/2000/svg"
   xmlns="http://www.w3.org/2000/svg"
   xmlns:sodipodi="http://sodipodi.sourceforge.net/DTD/sodipodi-0.dtd"
   xmlns:inkscape="http://www.inkscape.org/namespaces/inkscape"
   width="210mm"
   height="297mm"
   viewBox="0 0 744.09448819 1052.3622047"
   id="svg2"
   version="1.1"
   inkscape:version="0.91 r13725"
   sodipodi:docname="Klokken_2.svg">
  <defs
     id="defs4">
    <linearGradient
       id="linearGradient7017"
       osb:paint="solid">
      <stop
         style="stop-color:#000000;stop-opacity:1;"
         offset="0"
         id="stop7019" />
    </linearGradient>
    <marker
       inkscape:stockid="SquareL"
       orient="auto"
       refY="0.0"
       refX="0.0"
       id="SquareL"
       style="overflow:visible"
       inkscape:isstock="true">
      <path
         id="path4827"
         d="M -5.0,-5.0 L -5.0,5.0 L 5.0,5.0 L 5.0,-5.0 L -5.0,-5.0 z "
         style="fill-rule:evenodd;stroke:none;stroke-width:1pt;stroke-opacity:1;fill:#000000;fill-opacity:1"
         transform="scale(0.8)" />
    </marker>
    <marker
       inkscape:stockid="SquareS"
       orient="auto"
       refY="0.0"
       refX="0.0"
       id="SquareS"
       style="overflow:visible"
       inkscape:isstock="true">
      <path
         id="path4833"
         d="M -5.0,-5.0 L -5.0,5.0 L 5.0,5.0 L 5.0,-5.0 L -5.0,-5.0 z "
         style="fill-rule:evenodd;stroke:none;stroke-width:1pt;stroke-opacity:1;fill:#000000;fill-opacity:1"
         transform="scale(0.2)" />
    </marker>
    <marker
       inkscape:stockid="DiamondM"
       orient="auto"
       refY="0.0"
       refX="0.0"
       id="DiamondM"
       style="overflow:visible"
       inkscape:isstock="true">
      <path
         id="path4839"
         d="M 0,-7.0710768 L -7.0710894,0 L 0,7.0710589 L 7.0710462,0 L 0,-7.0710768 z "
         style="fill-rule:evenodd;stroke:none;stroke-width:1pt;stroke-opacity:1;fill:#000000;fill-opacity:1"
         transform="scale(0.4)" />
    </marker>
    <marker
       inkscape:stockid="DiamondL"
       orient="auto"
       refY="0.0"
       refX="0.0"
       id="marker5153"
       style="overflow:visible"
       inkscape:isstock="true">
      <path
         id="path5155"
         d="M 0,-7.0710768 L -7.0710894,0 L 0,7.0710589 L 7.0710462,0 L 0,-7.0710768 z "
         style="fill-rule:evenodd;stroke:none;stroke-width:1pt;stroke-opacity:1;fill:#000000;fill-opacity:1"
         transform="scale(0.8)" />
    </marker>
    <marker
       inkscape:stockid="DiamondL"
       orient="auto"
       refY="0.0"
       refX="0.0"
       id="marker5107"
       style="overflow:visible"
       inkscape:isstock="true">
      <path
         id="path5109"
         d="M 0,-7.0710768 L -7.0710894,0 L 0,7.0710589 L 7.0710462,0 L 0,-7.0710768 z "
         style="fill-rule:evenodd;stroke:none;stroke-width:1pt;stroke-opacity:1;fill:#000000;fill-opacity:1"
         transform="scale(0.8)" />
    </marker>
    <marker
       inkscape:stockid="DiamondL"
       orient="auto"
       refY="0.0"
       refX="0.0"
       id="DiamondL"
       style="overflow:visible"
       inkscape:isstock="true">
      <path
         id="path4836"
         d="M 0,-7.0710768 L -7.0710894,0 L 0,7.0710589 L 7.0710462,0 L 0,-7.0710768 z "
         style="fill-rule:evenodd;stroke:none;stroke-width:1pt;stroke-opacity:1;fill:#000000;fill-opacity:1"
         transform="scale(0.8)" />
    </marker>
    <marker
       inkscape:stockid="EmptyDiamondLend"
       orient="auto"
       refY="0.0"
       refX="0.0"
       id="EmptyDiamondLend"
       style="overflow:visible"
       inkscape:isstock="true">
      <path
         id="path4881"
         d="M 0,-7.0710768 L -7.0710894,0 L 0,7.0710589 L 7.0710462,0 L 0,-7.0710768 z "
         style="fill-rule:evenodd;fill:#000000;stroke:none;stroke-width:1pt;stroke-opacity:1;fill-opacity:1"
         transform="scale(0.8) translate(-7,0)" />
    </marker>
    <inkscape:perspective
       sodipodi:type="inkscape:persp3d"
       inkscape:vp_x="226.77925 : 505.47297 : 1"
       inkscape:vp_y="0 : 1000 : 0"
       inkscape:vp_z="970.87374 : 505.47297 : 1"
       inkscape:persp3d-origin="598.82649 : 330.07927 : 1"
       id="perspective3485" />
  </defs>
  <sodipodi:namedview
     id="base"
     pagecolor="#ffffff"
     bordercolor="#666666"
     borderopacity="1.0"
     inkscape:pageopacity="0.0"
     inkscape:pageshadow="2"
     inkscape:zoom="2"
     inkscape:cx="231.62914"
     inkscape:cy="786.49113"
     inkscape:document-units="px"
     inkscape:current-layer="layer1"
     showgrid="false"
     inkscape:window-width="1920"
     inkscape:window-height="1017"
     inkscape:window-x="-8"
     inkscape:window-y="-8"
     inkscape:window-maximized="1"
     inkscape:snap-global="false" />
  <metadata
     id="metadata7">
    <rdf:RDF>
      <cc:Work
         rdf:about="">
        <dc:format>image/svg+xml</dc:format>
        <dc:type
           rdf:resource="http://purl.org/dc/dcmitype/StillImage" />
        <dc:title></dc:title>
      </cc:Work>
    </rdf:RDF>
  </metadata>
  <g
     inkscape:label="Layer 1"
     inkscape:groupmode="layer"
     id="layer1"
     style="display:inline">
    <a
       id="a3716" />
    <path
       id="path3750"
       style="fill:none;fill-rule:evenodd;stroke:#000000;stroke-width:5;stroke-linecap:round;stroke-linejoin:miter;stroke-miterlimit:4;stroke-dasharray:none;stroke-opacity:1;stroke-dashoffset:0;fill-opacity:0.41721854"
       d="m 156.17003,328.06932 c 141.10371,24.35565 243.3615,-1.1926 235.25,-0.25 m 1.00841,-0.0271 c 0,0 -46.90889,-15.05537 -46.99996,-47.5 -0.38286,-136.40122 -71.49995,-132.5 -71.49995,-132.5 l 0,0 m -118.31498,180 c 0,0 46.90889,-15.05537 46.99996,-47.5 0.38286,-136.40122 71.49995,-132.5 71.49995,-132.5 l 0,0"
       inkscape:connector-curvature="0" />
    <path
       style="fill:none;fill-rule:evenodd;stroke:#000000;stroke-width:6.24464226;stroke-linecap:round;stroke-linejoin:miter;stroke-miterlimit:4;stroke-dasharray:none;stroke-opacity:1;stroke-dashoffset:0"
       d="m 169.99994,356.10911 c 124.58467,24.35668 214.87105,-1.19255 207.70909,-0.24994"
       id="path3750-0"
       inkscape:connector-curvature="0"
       sodipodi:nodetypes="cc" />
  </g>
  <g
     inkscape:groupmode="layer"
     id="layer4"
     inkscape:label="Layer 2"
     style="display:inline">
    <path
       style="color:#000000;font-style:normal;font-variant:normal;font-weight:normal;font-stretch:normal;font-size:medium;line-height:normal;font-family:sans-serif;text-indent:0;text-align:start;text-decoration:none;text-decoration-line:none;text-decoration-style:solid;text-decoration-color:#000000;letter-spacing:normal;word-spacing:normal;text-transform:none;direction:ltr;block-progression:tb;writing-mode:lr-tb;baseline-shift:baseline;text-anchor:start;white-space:normal;clip-rule:nonzero;display:inline;overflow:visible;visibility:visible;opacity:1;isolation:auto;mix-blend-mode:normal;color-interpolation:sRGB;color-interpolation-filters:linearRGB;solid-color:#000000;solid-opacity:1;fill:#000000;fill-opacity:1;fill-rule:nonzero;stroke:none;stroke-width:2.5;stroke-linecap:round;stroke-linejoin:miter;stroke-miterlimit:4;stroke-dasharray:none;stroke-dashoffset:0;stroke-opacity:1;color-rendering:auto;image-rendering:auto;shape-rendering:auto;text-rendering:auto;enable-background:accumulate;"
       d="m 204.66894,275.91785 -1.4375,0.2168 c -14.41755,2.18175 -25.87327,4.95561 -33.83007,8.13281 -3.9784,1.5886 -7.08618,3.27094 -9.2793,5.10742 -2.19312,1.83649 -3.53555,3.92087 -3.54492,6.19531 l 0,0.004 0,0.002 c 2.3e-4,2.01521 1.04653,3.88796 2.7539,5.53125 1.70738,1.6433 4.1076,3.13542 7.13867,4.54688 6.06215,2.82293 14.67303,5.30747 25.28907,7.39844 21.23206,4.18194 50.45766,6.75397 82.74218,6.7539 32.28415,-4e-5 61.50857,-2.57197 82.74024,-6.7539 10.61584,-2.09097 19.22704,-4.57554 25.28906,-7.39844 3.03101,-1.41145 5.43133,-2.9036 7.13867,-4.54688 1.70734,-1.64328 2.75369,-3.51607 2.75391,-5.53125 l 0,-0.004 0,-0.006 c -0.0178,-2.27346 -1.36508,-4.3546 -3.5625,-6.18945 -2.19742,-1.83486 -5.31001,-3.51606 -9.29102,-5.10352 -7.962,-3.17492 -19.41851,-5.94714 -33.83398,-8.12695 l -1.4375,-0.2168 0,5.72461 2.5,0 0,-2.75977 c 13.54536,2.12374 24.47533,4.76218 31.8457,7.70117 3.82905,1.52687 6.73733,3.1328 8.61328,4.69922 1.87406,1.56485 2.65243,2.99649 2.66407,4.28711 -0.002,1.15607 -0.58742,2.37819 -1.98633,3.72461 -1.40124,1.34867 -3.58595,2.74415 -6.45899,4.08203 -5.74607,2.67578 -14.21924,5.14327 -24.71679,7.21094 -20.99511,4.13534 -50.10673,6.70699 -82.25782,6.70703 -32.15146,7e-5 -61.26231,-2.57168 -82.25781,-6.70703 -10.49775,-2.06767 -18.97255,-4.53514 -24.71875,-7.21094 -2.8731,-1.3379 -5.05771,-2.73334 -6.45898,-4.08203 -1.39985,-1.34731 -1.98695,-2.56982 -1.98828,-3.72656 0.006,-1.29171 0.78029,-2.72307 2.65039,-4.28906 1.87091,-1.56668 4.77542,-3.17338 8.60156,-4.70117 7.36477,-2.9408 18.29284,-5.58144 31.83984,-7.70704 l 0,2.77149 2.5,0 0,-5.73633 z"
       id="path4575-3"
       inkscape:connector-curvature="0" />
  </g>
</svg>
